<?xml version="1.0" encoding="UTF-8"?>
<svg width="40px" height="40px" viewBox="0 0 40 40" version="1.1" xmlns="http://www.w3.org/2000/svg" xmlns:xlink="http://www.w3.org/1999/xlink">
    <defs></defs>
    <g id="Page-1" stroke="none" stroke-width="1" fill="none" fill-rule="evenodd" opacity="0.900000036">
        <g id="AMP-Audience" transform="translate(-1540.000000, -31.000000)" fill="#645151">
            <g id="icon-closex-darkoverlay" transform="translate(1540.000000, 31.000000)">
                <g id="Group-2">
                    <path d="M28.2608696,11.7391304 C27.7402899,11.2185507 26.8707246,11.2185507 26.3472464,11.7391304 L20,18.0863768 L13.6956522,11.7391304 C13.1750725,11.2185507 12.3055072,11.2185507 11.782029,11.7391304 C11.2614493,12.2597101 11.2614493,13.1292754 11.782029,13.6527536 L18.0863768,20 L11.7391304,26.3043478 C11.2185507,26.8249275 11.2185507,27.6944928 11.7391304,28.217971 C11.9994203,28.4782609 12.3484058,28.6098551 12.6944928,28.6098551 C13.0434783,28.6098551 13.3901449,28.4782609 13.6504348,28.217971 L20,21.9136232 L26.3043478,28.2608696 C26.5646377,28.5211594 26.9136232,28.6527536 27.2597101,28.6527536 C27.6086957,28.6527536 27.9553623,28.5211594 28.2156522,28.2608696 C28.7362319,27.7402899 28.7362319,26.8707246 28.2156522,26.3472464 L21.9136232,20 L28.2608696,13.6956522 C28.7814493,13.1292754 28.7814493,12.3055072 28.2608696,11.7391304 Z" id="Fill-1"></path>
                    <path d="M20,0.434782609 C9.17333333,0.434782609 0.434782609,9.17333333 0.434782609,20 C0.434782609,30.8266667 9.17333333,39.5652174 20,39.5652174 C30.8266667,39.5652174 39.5652174,30.8266667 39.5652174,20 C39.5652174,9.17333333 30.8266667,0.434782609 20,0.434782609 Z M31.9136232,31.9136232 C28.7385507,35.0881159 24.5223188,36.8272464 20,36.8272464 C15.5205797,36.8272464 11.2614493,35.0881159 8.08637681,31.9136232 C4.91188406,28.7385507 3.17275362,24.5223188 3.17275362,20 C3.17275362,15.5205797 4.91188406,11.2614493 8.08637681,8.08637681 C11.2614493,4.91188406 15.4776812,3.17275362 20,3.17275362 C24.4794203,3.17275362 28.7385507,4.91188406 31.9136232,8.08637681 C35.0881159,11.2614493 36.8272464,15.4776812 36.8272464,20 C36.8249275,24.4794203 35.0857971,28.7385507 31.9136232,31.9136232 Z" id="Fill-2"></path>
                </g>
            </g>
        </g>
    </g>
</svg>