<?xml version="1.0" encoding="UTF-8"?>
<svg width="24px" height="24px" viewBox="0 0 24 24" version="1.1" xmlns="http://www.w3.org/2000/svg" xmlns:xlink="http://www.w3.org/1999/xlink">
    <defs></defs>
    <g id="Page-1" stroke="none" stroke-width="1" fill="none" fill-rule="evenodd">
        <g id="AMP-Messaging-Overview" transform="translate(-1548.000000, -117.000000)" fill="#645151">
            <path d="M1571.08388,126.742303 L1569.65902,126.130354 C1569.31955,125.994113 1569.04707,125.723896 1568.87733,125.384427 C1568.74155,124.944023 1568.74155,124.535755 1568.87733,124.196287 L1569.45398,122.77097 C1569.75995,122.295714 1569.65721,121.685575 1569.28424,121.310801 L1567.68919,119.715751 C1567.31623,119.342788 1566.70473,119.273989 1566.26433,119.546016 L1564.80371,120.122661 C1564.02248,120.428635 1563.1738,120.055219 1562.86964,119.307483 L1562.25769,117.916113 C1562.1554,117.373416 1561.6815,117 1561.13699,117 C1561.13699,117 1560.37899,117 1558.863,117 C1558.3203,117 1557.8446,117.373416 1557.7423,117.882619 L1557.13035,119.307483 C1556.79088,120.053409 1555.94221,120.392878 1555.19629,120.122661 L1553.77097,119.546016 C1553.32921,119.240494 1552.71907,119.309293 1552.3108,119.715751 L1550.71575,121.310801 C1550.34279,121.683765 1550.27399,122.295714 1550.54602,122.735665 L1551.12266,124.196287 C1551.42864,124.977517 1551.05522,125.826189 1550.30748,126.130354 L1548.91611,126.742303 C1548.37342,126.844596 1548,127.318494 1548,127.863002 L1548,130.136991 C1548,130.679688 1548.37342,131.155397 1548.88262,131.257691 L1550.30748,131.86964 C1551.05386,132.209109 1551.39333,133.057781 1551.12266,133.803707 L1550.54602,135.229023 C1550.24049,135.704732 1550.30929,136.280924 1550.71575,136.689192 L1552.3108,138.284243 C1552.68376,138.657206 1553.29571,138.726005 1553.73567,138.453977 L1555.19629,137.877333 C1555.97752,137.571811 1556.82619,137.944774 1557.13035,138.692511 L1557.7423,140.08388 C1557.8446,140.62703 1558.31849,140.999993 1558.863,140.999993 C1558.863,140.999993 1559.621,140.999993 1561.13699,140.999993 C1561.67969,140.999993 1562.1554,140.62703 1562.25769,140.117827 L1562.86964,138.692511 C1563.20911,137.946584 1564.05778,137.607116 1564.80371,137.877333 L1566.22902,138.453977 C1566.67079,138.759952 1567.28092,138.6907 1567.68919,138.284243 L1569.28424,136.689192 C1569.65721,136.316229 1569.726,135.704732 1569.45398,135.264328 L1568.87733,133.803707 C1568.57181,133.022476 1568.94477,132.173804 1569.69251,131.86964 L1571.08388,131.257691 C1571.62703,131.155397 1571.99999,130.681499 1571.99999,130.136991 L1571.99999,127.863002 C1572.0018,127.318494 1571.62884,126.842785 1571.08388,126.742303 Z M1559.98415,133.904642 C1557.2684,133.904642 1555.06186,131.698095 1555.06186,128.982344 C1555.06186,126.266594 1557.2684,124.060046 1559.98415,124.060046 C1562.69991,124.060046 1564.90645,126.266594 1564.90645,128.982344 C1564.90645,131.698095 1562.69991,133.904642 1559.98415,133.904642 Z" id="icon-gear-settings"></path>
        </g>
    </g>
</svg>