<?xml version="1.0" encoding="UTF-8"?>
<svg width="29px" height="30px" viewBox="0 0 29 30" version="1.1" xmlns="http://www.w3.org/2000/svg" xmlns:xlink="http://www.w3.org/1999/xlink">
    <defs></defs>
    <g id="Page-1" stroke="none" stroke-width="1" fill="none" fill-rule="evenodd" opacity="0.599999964">
        <g id="AMP-Messaging-Overview" transform="translate(-26.000000, -356.000000)" fill="#645151">
            <g id="icon-mini-bot" transform="translate(26.000000, 356.000000)">
                <path d="M25.222,9 L4.1204,9 C1.9548,9 0.2,10.858 0.2,13.0672 L0.2,24.3 L29,24.3 L29,13.0672 C29,10.858 27.386,9 25.222,9 Z M8.1844,18.128 C6.7592,18.128 5.6048,16.95 5.6048,15.4952 C5.6048,14.042 6.7592,12.8624 8.1844,12.8624 C9.6092,12.8624 10.764,14.042 10.764,15.4952 C10.764,16.9484 9.6092,18.128 8.1844,18.128 Z M21.3752,18.128 C19.95,18.128 18.7952,16.95 18.7952,15.4952 C18.7952,14.042 19.95,12.8624 21.3752,12.8624 C22.7984,12.8624 23.9548,14.042 23.9548,15.4952 C23.9548,16.9484 22.8,18.128 21.3752,18.128 Z" id="Fill-19"></path>
                <path d="M5.65,25.3328 L23.4688,25.3328 C23.9796,25.3328 24.3936,25.7564 24.3936,26.2764 C24.3936,26.7984 23.9796,27.2204 23.4688,27.2204 L5.65,27.2204 C5.1392,27.2204 4.7248,26.7968 4.7248,26.2764 C4.7248,25.7564 5.1392,25.3328 5.65,25.3328 Z" id="Fill-20"></path>
                <path d="M8.664,28.0952 L20.6156,28.0952 C21.1264,28.0952 21.5408,28.5188 21.5408,29.0408 C21.5408,29.5624 21.1264,29.9844 20.6156,29.9844 L8.664,29.9844 C8.1532,29.9844 7.7392,29.5624 7.7392,29.0408 C7.7392,28.5188 8.1532,28.0952 8.664,28.0952 Z" id="Fill-21"></path>
                <path d="M16.764,1.9236 C16.764,0.8608 15.9484,0 14.908,0 C13.8688,0 13.1016,0.8608 13.1016,1.9236 C13.1016,2.5844 13.4016,3.1656 14.0016,3.5124 L14.0016,6.7844 C14.0016,7.3452 14.3532,7.8 14.9016,7.8 C15.4516,7.8 15.8016,7.3452 15.8016,6.7844 L15.8016,3.5656 C16.4,3.2296 16.764,2.6204 16.764,1.9236 Z" id="Fill-22"></path>
            </g>
        </g>
    </g>
</svg>