<?xml version="1.0" encoding="UTF-8"?>
<svg width="30px" height="25px" viewBox="0 0 30 25" version="1.1" xmlns="http://www.w3.org/2000/svg" xmlns:xlink="http://www.w3.org/1999/xlink">
    <defs></defs>
    <g id="Page-1" stroke="none" stroke-width="1" fill="none" fill-rule="evenodd">
        <g id="AMP-Audience" transform="translate(-1022.000000, -138.000000)" fill="#645151">
            <g id="icon-lists" transform="translate(1022.000000, 138.000000)">
                <path d="M27.1495385,0.152830189 L12.126,0.152830189 C10.6029231,0.152830189 9.35676923,1.4259434 9.35676923,2.98301887 C9.35676923,4.54009434 10.6029231,5.81320755 12.126,5.81320755 L27.1495385,5.81320755 C28.6730769,5.81320755 29.9187692,4.54009434 29.9187692,2.98301887 C29.9187692,1.4259434 28.6730769,0.152830189 27.1495385,0.152830189 Z" id="Fill-1"></path>
                <path d="M27.1495385,9.70471698 L12.126,9.70471698 C10.6029231,9.70471698 9.35676923,10.9778302 9.35676923,12.5349057 C9.35676923,14.0919811 10.6029231,15.3650943 12.126,15.3650943 L27.1495385,15.3650943 C28.6730769,15.3650943 29.9187692,14.0919811 29.9187692,12.5349057 C29.9187692,10.9778302 28.6730769,9.70471698 27.1495385,9.70471698 Z" id="Fill-2"></path>
                <path d="M5.65384615,12.5349057 C5.65384615,14.0995283 4.41323077,15.3650943 2.88461538,15.3650943 C1.356,15.3650943 0.115384615,14.0995283 0.115384615,12.5349057 C0.115384615,10.9726415 1.356,9.70471698 2.88461538,9.70471698 C4.41323077,9.70471698 5.65384615,10.9726415 5.65384615,12.5349057" id="Fill-3"></path>
                <path d="M5.65384615,2.98301887 C5.65384615,4.54764151 4.41323077,5.81320755 2.88461538,5.81320755 C1.356,5.81320755 0.115384615,4.54764151 0.115384615,2.98301887 C0.115384615,1.42075472 1.356,0.152830189 2.88461538,0.152830189 C4.41323077,0.152830189 5.65384615,1.42075472 5.65384615,2.98301887" id="Fill-4"></path>
                <path d="M27.1495385,19.2566038 L12.126,19.2566038 C10.6029231,19.2566038 9.35676923,20.529717 9.35676923,22.0867925 C9.35676923,23.6438679 10.6029231,24.9169811 12.126,24.9169811 L27.1495385,24.9169811 C28.6730769,24.9169811 29.9187692,23.6438679 29.9187692,22.0867925 C29.9187692,20.529717 28.6730769,19.2566038 27.1495385,19.2566038 Z" id="Fill-5"></path>
                <path d="M5.65384615,22.0867925 C5.65384615,23.6514151 4.41323077,24.9169811 2.88461538,24.9169811 C1.356,24.9169811 0.115384615,23.6514151 0.115384615,22.0867925 C0.115384615,20.5245283 1.356,19.2566038 2.88461538,19.2566038 C4.41323077,19.2566038 5.65384615,20.5245283 5.65384615,22.0867925 L15.208578,12.2936496" id="Fill-6"></path>
            </g>
        </g>
    </g>
</svg>