<?xml version="1.0" encoding="UTF-8"?>
<svg width="35px" height="35px" viewBox="0 0 35 35" version="1.1" xmlns="http://www.w3.org/2000/svg" xmlns:xlink="http://www.w3.org/1999/xlink">
    <defs></defs>
    <g id="Page-1" stroke="none" stroke-width="1" fill="none" fill-rule="evenodd">
        <g id="AMP-Audience" transform="translate(-42.000000, -134.000000)" fill="#645151">
            <path d="M65.4635362,155.475373 L65.4635362,156.546838 C65.4635362,157.138287 64.9839961,157.618303 64.3920712,157.618303 L54.6079288,157.618303 C54.0160039,157.618303 53.5364638,157.138287 53.5364638,156.546838 L53.5364638,155.475373 C53.534559,153.454828 54.8646042,151.674768 56.8008606,151.099986 C57.0294398,151.031413 57.2770672,151.107606 57.4261199,151.293326 L59.0609374,153.332443 C59.2861832,153.613405 59.711912,153.613405 59.9352529,153.332443 L61.566737,151.289993 C61.7153134,151.103796 61.9629409,151.027603 62.1915201,151.096177 C64.1334909,151.667625 65.465441,153.451495 65.4635362,155.475373 Z M59.5,150.385676 C60.8671894,150.385676 62.1005646,149.561839 62.6248682,148.298463 C63.1477431,147.033658 62.8596381,145.578846 61.8919861,144.61167 C60.9248104,143.644495 59.4704752,143.354485 58.2051941,143.878788 C56.942294,144.401663 56.1179802,145.635039 56.1179802,147.004133 C56.1179802,148.871339 57.6323174,150.385676 59.5,150.385676 Z M77.0005953,151.5 C77.0005953,152.441461 76.2377122,153.203867 75.2967278,153.203867 L73.6223851,153.203867 C72.8280724,159.705041 67.705041,164.828072 61.2038675,165.622385 L61.2038675,167.296728 C61.2038675,169.567757 57.7961325,169.567757 57.7961325,167.296728 L57.7961325,165.622385 C51.294959,164.828072 46.1719276,159.705041 45.3776149,153.203867 L43.7032722,153.203867 C41.4322426,153.203867 41.4322426,149.796133 43.7032722,149.796133 L45.3776149,149.796133 C46.1719276,143.294959 51.294959,138.171928 57.7961325,137.377615 L57.7961325,135.703272 C57.7961325,133.432243 61.2038675,133.432243 61.2038675,135.703272 L61.2038675,137.377615 C67.705041,138.171928 72.8280724,143.294959 73.6223851,149.796133 L75.2967278,149.796133 C76.2377122,149.796133 77.0005953,150.558539 77.0005953,151.5 Z M70.3189394,151.5 C70.3170346,147.124613 67.6812307,143.181146 63.6387122,141.507279 C59.5947651,139.834841 54.9427021,140.761063 51.8492636,143.854502 C48.7572536,146.949845 47.8310317,151.602384 49.5053743,155.644427 C51.1811456,159.686469 55.1246131,162.320844 59.5,162.322749 C65.4730603,162.31513 70.3132249,157.47306 70.3189394,151.5 Z" id="icon-targets"></path>
        </g>
    </g>
</svg>