<?xml version="1.0" encoding="UTF-8"?>
<svg width="35px" height="25px" viewBox="0 0 35 25" version="1.1" xmlns="http://www.w3.org/2000/svg" xmlns:xlink="http://www.w3.org/1999/xlink">
    <defs></defs>
    <g id="Page-1" stroke="none" stroke-width="1" fill="none" fill-rule="evenodd">
        <g id="AMP-Audience" transform="translate(-537.000000, -140.000000)" fill="#645151">
            <path d="M571.629596,153.368501 L560.021475,164.640551 C559.527604,165.119816 558.727595,165.119816 558.233723,164.640551 L557.341981,163.772117 C556.848109,163.293386 556.848109,162.516646 557.341981,162.037382 L567.165016,152.504332 L557.341981,142.962219 C556.848109,142.483487 556.848109,141.70888 557.341981,141.227483 L558.233723,140.359049 C558.727595,139.880317 559.527604,139.880317 560.021475,140.359049 L571.629596,151.631633 C572.123468,152.110364 572.123468,152.887104 571.629596,153.368501 Z M561.610825,153.343445 L550.329641,164.636287 C549.854436,165.115551 549.081628,165.115551 548.606423,164.638419 L537.352439,153.370633 C537.108703,153.127002 536.991902,152.806071 537.000436,152.487272 L537.000436,142.508543 C537.000436,141.129924 538.116714,140.009329 539.498062,140.009329 L549.425098,140.009329 C549.5547,140.0008 549.685901,140.022124 549.814969,140.055177 C550.029371,140.115418 550.208573,140.201249 550.358441,140.351052 L561.617225,151.618838 C562.088163,152.093838 562.088163,152.866312 561.610825,153.343445 Z M542.622894,143.755484 C541.589817,143.755484 540.750341,144.595131 540.750341,145.627762 C540.750341,146.663059 541.587683,147.504305 542.622894,147.504305 C543.658638,147.504305 544.49598,146.663059 544.49598,145.627762 C544.498114,144.595131 543.658638,143.755484 542.622894,143.755484 Z" id="icon-tags"></path>
        </g>
    </g>
</svg>