<?xml version="1.0" encoding="UTF-8"?>
<svg width="30px" height="30px" viewBox="0 0 30 30" version="1.1" xmlns="http://www.w3.org/2000/svg" xmlns:xlink="http://www.w3.org/1999/xlink">
    <defs></defs>
    <g id="Page-1" stroke="none" stroke-width="1" fill="none" fill-rule="evenodd" opacity="0.599999964">
        <g id="AMP-Messaging-Overview" transform="translate(-26.000000, -279.000000)" fill="#645151">
            <g id="icon-mini-push" transform="translate(26.000000, 279.000000)">
                <path d="M27.5932836,22.5 L2.40671642,22.5 C1.24880597,22.5 0.308059701,21.6624 0.308059701,20.6248 C0.308059701,19.5876 1.24880597,18.75 2.40671642,18.75 C3.39134328,18.75 4.50537313,18.75 4.50537313,15 L4.50537313,13.1248 C4.50537313,7.9564 9.21402985,3.75 15,3.75 C20.7859701,3.75 25.4946269,7.9564 25.4946269,13.1248 L25.4946269,15 C25.4946269,18.75 26.6086567,18.75 27.5932836,18.75 C28.7547761,18.75 29.6919403,19.5876 29.6919403,20.6248 C29.6919403,21.6624 28.7547761,22.5 27.5932836,22.5 Z M8.15597015,18.75 L21.8422388,18.75 C21.4786567,17.7124 21.2964179,16.4624 21.2964179,15 L21.2964179,13.1248 C21.2964179,10.0236 18.4719403,7.5 15,7.5 C11.5280597,7.5 8.70358209,10.0236 8.70358209,13.1248 L8.70358209,15 C8.70358209,16.4624 8.52134328,17.7124 8.15597015,18.75 Z" id="Fill-1"></path>
                <path d="M15,7.5 C13.8420896,7.5 12.9008955,6.6592 12.9008955,5.6248 L12.9008955,1.8752 C12.9008955,0.8408 13.8420896,0 15,0 C16.1579104,0 17.0991045,0.8408 17.0991045,1.8752 L17.0991045,5.6248 C17.0991045,6.6592 16.1579104,7.5 15,7.5 Z" id="Path"></path>
                <path d="M18.148209,27.1876 C18.148209,28.7408 16.7386567,30 15,30 C13.2613433,30 11.851791,28.7408 11.851791,27.1876 C11.851791,25.6344 13.2613433,24.3752 15,24.3752 C16.7386567,24.3752 18.148209,25.6344 18.148209,27.1876" id="Fill-2"></path>
            </g>
        </g>
    </g>
</svg>