<?xml version="1.0" encoding="UTF-8"?>
<svg width="30px" height="28px" viewBox="0 0 30 28" version="1.1" xmlns="http://www.w3.org/2000/svg" xmlns:xlink="http://www.w3.org/1999/xlink">
    <defs></defs>
    <g id="Page-1" stroke="none" stroke-width="1" fill="none" fill-rule="evenodd" opacity="0.599999964">
        <g id="AMP-Messaging-Overview" transform="translate(-26.000000, -204.000000)" fill="#645151">
            <g id="icon-mini-sms" transform="translate(26.000000, 204.000000)">
                <path d="M8.6390625,27.3727811 C8.431875,27.3727811 8.22328125,27.3344379 8.02546875,27.2594556 C7.411875,27.0298225 7.01296875,26.4874793 7.01109375,25.8850651 L7.00734375,21.3350059 L5.69625,21.3281893 C2.60015625,21.3102959 0.09703125,19.0067219 0.1171875,16.1927574 L0.1940625,5.34205917 C0.21421875,2.52809467 2.74828125,0.253065089 5.84484375,0.271384615 L24.0801562,0.377893491 C27.1767187,0.396213018 29.679375,2.69936095 29.6610937,5.51332544 L29.5842187,16.3623195 C29.5640625,19.1767101 27.03,21.4517396 23.9320312,21.4334201 L15.8845312,21.3882604 L9.8090625,26.9352426 C9.4940625,27.2228166 9.069375,27.3761893 8.6390625,27.3727811 Z M5.8246875,3.24852071 C4.53375,3.24170414 3.4753125,4.18878107 3.4678125,5.36208284 L3.3909375,16.2110769 C3.38390625,17.3860828 4.42734375,18.3459408 5.71828125,18.3527574 L8.65359375,18.3710769 C9.55265625,18.3761893 10.2796875,19.0399527 10.2796875,19.8570888 L10.2815625,22.2854911 L14.0498437,18.8452544 C14.3592187,18.5623669 14.7801562,18.4043077 15.2198437,18.407716 L23.9540625,18.4575621 C25.2464062,18.4643787 26.3029687,17.5173018 26.3104687,16.344 L26.3873437,5.49500592 C26.3948437,4.32213018 25.3509375,3.36014201 24.06,3.35332544 L5.8246875,3.24852071 Z" id="Fill-1"></path>
                <path d="M10.2117187,11.0270769 C10.2117187,13.7098225 5.784375,13.7098225 5.784375,11.0270769 C5.784375,8.34433136 10.2117187,8.34433136 10.2117187,11.0270769" id="Fill-2"></path>
                <path d="M16.9134375,11.0654201 C16.9134375,13.7494438 12.4860938,13.7494438 12.4860938,11.0654201 C12.4860938,8.38267456 16.9134375,8.38267456 16.9134375,11.0654201" id="Fill-3"></path>
                <path d="M19.1878125,11.1050414 C19.1878125,8.42101775 23.6151563,8.42101775 23.6151563,11.1050414 C23.6151563,13.787787 19.1878125,13.787787 19.1878125,11.1050414 Z" id="Fill-4"></path>
            </g>
        </g>
    </g>
</svg>